<svg xmlns="http://www.w3.org/2000/svg" width="130" height="28.001" viewBox="0 0 130 28.001">
  <g id="logo_2_" transform="translate(-55 -0.3)">
    <g id="Group_5" data-name="Group 5" transform="translate(55 0.3)">
      <path id="Path_5" data-name="Path 5" d="M69.8,25.2H58.32A3.321,3.321,0,0,1,55,21.876V3.629A3.329,3.329,0,0,1,58.32.3H76.352a3.321,3.321,0,0,1,3.32,3.32v9.932a.729.729,0,1,1-1.459,0V3.629a1.876,1.876,0,0,0-1.871-1.871H58.32a1.876,1.876,0,0,0-1.87,1.871V21.876a1.876,1.876,0,0,0,1.87,1.871H69.8a.73.73,0,0,1,.729.729A.722.722,0,0,1,69.8,25.2Z" transform="translate(-55 -0.3)" fill="#2d2d2d"/>
      <path id="Path_6" data-name="Path 6" d="M166.723,108.842c-.1,0-.206-.009-.309-.019a4.459,4.459,0,0,1-2.665-1.637c-.075-.084-.159-.159-.234-.243l-5.995-5.995a4.156,4.156,0,0,1-1.44-3.068,3.153,3.153,0,0,1,1.01-2.16l1.365-1.365a2.776,2.776,0,0,1,2.02-.907,3.1,3.1,0,0,1,2.048.907l1.908,1.908c.608.608,1.9,1.4,2.815.5.954-.935,1.917-1.908,2.843-2.843.524-.524,1.038-1.047,1.562-1.571a.727.727,0,0,1,1.029,1.029c-.524.524-1.038,1.038-1.553,1.562-.935.935-1.9,1.908-2.853,2.853-1.515,1.487-3.582.776-4.873-.505l-1.927-1.927a1.693,1.693,0,0,0-1.019-.468h0a1.393,1.393,0,0,0-.963.477l-1.44,1.44h0a1.759,1.759,0,0,0-.524,1.15,2.8,2.8,0,0,0,1.01,1.964l5.995,5.995c.084.084.168.168.243.253a3.308,3.308,0,0,0,1.777,1.206,2.542,2.542,0,0,0,1.936-.917l11.073-11.073c.514-.514.963-.963.991-1.534a2.524,2.524,0,0,0-.87-1.721l-1.74-1.74a.727.727,0,1,1,1.029-1.029l1.74,1.74a3.764,3.764,0,0,1,1.3,2.824,3.857,3.857,0,0,1-1.422,2.5l-11.064,11.064A4.079,4.079,0,0,1,166.723,108.842Z" transform="translate(-146.625 -80.84)" fill="#11c4e0"/>
      <circle id="Ellipse_3" data-name="Ellipse 3" cx="0.711" cy="0.711" r="0.711" transform="translate(27.272 9.381)" fill="#11c4e0"/>
    </g>
    <g id="Group_6" data-name="Group 6" transform="translate(96.207 5.294)">
      <path id="Path_7" data-name="Path 7" d="M500.847,53.7a4.851,4.851,0,0,1,1,.094,4.5,4.5,0,0,1,.823.253l-.711,2.245a1.957,1.957,0,0,0-.412-.15,2.248,2.248,0,0,0-.542-.056,1.134,1.134,0,0,0-.879.355,1.407,1.407,0,0,0-.327.991V58.2h2.338V60.35H499.8V67.6h-2.516V60.35H495.6V58.2h1.683v-.917a4.069,4.069,0,0,1,.262-1.524,2.978,2.978,0,0,1,.739-1.113,3.237,3.237,0,0,1,1.132-.692A3.712,3.712,0,0,1,500.847,53.7Z" transform="translate(-495.6 -53.7)" fill="#2d2d2d"/>
      <path id="Path_8" data-name="Path 8" d="M576.585,98.3a5.154,5.154,0,0,1,2,.374,4.682,4.682,0,0,1,2.609,2.619,5.591,5.591,0,0,1,0,4.022,4.742,4.742,0,0,1-1.038,1.581,4.8,4.8,0,0,1-1.571,1.038,5.541,5.541,0,0,1-4,0,4.682,4.682,0,0,1-2.609-2.619,5.591,5.591,0,0,1,0-4.022,4.741,4.741,0,0,1,1.038-1.581,4.8,4.8,0,0,1,1.571-1.038A5.333,5.333,0,0,1,576.585,98.3Zm0,7.688a2.433,2.433,0,0,0,.926-.178,2.5,2.5,0,0,0,.795-.524,2.462,2.462,0,0,0,.543-.842,3.089,3.089,0,0,0,.206-1.132,2.906,2.906,0,0,0-.206-1.132,2.421,2.421,0,0,0-.543-.842,2.351,2.351,0,0,0-.795-.524,2.433,2.433,0,0,0-.926-.178,2.385,2.385,0,0,0-1.721.7,2.462,2.462,0,0,0-.542.842,3.087,3.087,0,0,0-.206,1.132,2.9,2.9,0,0,0,.206,1.132,2.387,2.387,0,0,0,1.328,1.365A2.38,2.38,0,0,0,576.585,105.988Z" transform="translate(-564.492 -94.129)" fill="#2d2d2d"/>
      <path id="Path_9" data-name="Path 9" d="M693.4,98.518h2.357v1.3h.15a2.491,2.491,0,0,1,.458-.636,3.5,3.5,0,0,1,.645-.505,3.563,3.563,0,0,1,.767-.346,2.739,2.739,0,0,1,.814-.131,3.161,3.161,0,0,1,.851.1,2.146,2.146,0,0,1,.608.281l-.673,2.245a2.151,2.151,0,0,0-.5-.178,2.863,2.863,0,0,0-.683-.065,2.087,2.087,0,0,0-1.655.776,2.616,2.616,0,0,0-.458.86,3.267,3.267,0,0,0-.159,1.066v4.629H693.4Z" transform="translate(-674.901 -94.038)" fill="#2d2d2d"/>
      <path id="Path_10" data-name="Path 10" d="M776.8,98.609h2.357v1.225h.15a3.271,3.271,0,0,1,1.2-1.113,3.4,3.4,0,0,1,1.674-.421,3.155,3.155,0,0,1,1.805.5,2.821,2.821,0,0,1,1.038,1.225,3.778,3.778,0,0,1,1.244-1.216,3.6,3.6,0,0,1,1.955-.505,3.683,3.683,0,0,1,1.5.281,2.817,2.817,0,0,1,1.047.776,3.474,3.474,0,0,1,.627,1.2,5.264,5.264,0,0,1,.215,1.524V108h-2.516v-5.462c0-1.281-.524-1.917-1.571-1.917a1.684,1.684,0,0,0-.879.224,2.068,2.068,0,0,0-.645.6,2.769,2.769,0,0,0-.4.888,4.269,4.269,0,0,0-.14,1.113v4.564h-2.516v-5.462c0-1.281-.552-1.917-1.646-1.917a1.573,1.573,0,0,0-.842.224,1.981,1.981,0,0,0-.617.6,2.967,2.967,0,0,0-.383.888,4.271,4.271,0,0,0-.131,1.113v4.564H776.8Z" transform="translate(-750.501 -94.129)" fill="#2d2d2d"/>
      <path id="Path_11" data-name="Path 11" d="M954.021,108.217a5.161,5.161,0,0,1-1.637-.234,4.283,4.283,0,0,1-1.244-.608,4.055,4.055,0,0,1-1.44-1.852l2.245-.954a2.391,2.391,0,0,0,.87,1.085,2.2,2.2,0,0,0,1.216.355,2.061,2.061,0,0,0,1.094-.253.706.706,0,0,0,.4-.6.742.742,0,0,0-.337-.627,3.548,3.548,0,0,0-1.16-.43l-1.319-.29a4.728,4.728,0,0,1-.907-.309,3.443,3.443,0,0,1-.851-.533,2.763,2.763,0,0,1-.636-.786,2.2,2.2,0,0,1-.252-1.076,2.5,2.5,0,0,1,.3-1.225,2.692,2.692,0,0,1,.814-.907,3.746,3.746,0,0,1,1.216-.571A5.578,5.578,0,0,1,953.9,98.2a5.333,5.333,0,0,1,2.394.524,3.277,3.277,0,0,1,1.553,1.674l-2.17.879a1.644,1.644,0,0,0-.786-.8,2.355,2.355,0,0,0-1.038-.253,1.871,1.871,0,0,0-.935.224.645.645,0,0,0-.4.561.571.571,0,0,0,.337.514,3.762,3.762,0,0,0,.907.346l1.44.346a4.221,4.221,0,0,1,2.142,1.1,2.554,2.554,0,0,1,.7,1.8,2.46,2.46,0,0,1-.29,1.169,3.143,3.143,0,0,1-.814.991,4.085,4.085,0,0,1-1.263.683A4.73,4.73,0,0,1,954.021,108.217Z" transform="translate(-907.23 -94.038)" fill="#2d2d2d"/>
      <path id="Path_12" data-name="Path 12" d="M1055.165,171.1a1.662,1.662,0,0,1-1.178-.468,1.521,1.521,0,0,1-.486-1.141,1.5,1.5,0,0,1,.486-1.132,1.654,1.654,0,0,1,1.178-.458,1.615,1.615,0,0,1,1.169.458,1.512,1.512,0,0,1,.477,1.132,1.562,1.562,0,0,1-.477,1.141A1.608,1.608,0,0,1,1055.165,171.1Z" transform="translate(-1001.322 -157.219)" fill="#11c4e0"/>
      <path id="Path_13" data-name="Path 13" d="M1110.832,106.917h-.15a4.06,4.06,0,0,1-1.066.917,3.02,3.02,0,0,1-1.6.383,3.937,3.937,0,0,1-1.375-.243,3.531,3.531,0,0,1-1.122-.664,2.915,2.915,0,0,1-.748-1.019,3.142,3.142,0,0,1-.271-1.3,2.839,2.839,0,0,1,.29-1.309,2.9,2.9,0,0,1,.8-1.01,3.689,3.689,0,0,1,1.216-.645,4.964,4.964,0,0,1,1.525-.224,6.728,6.728,0,0,1,1.515.14,7.406,7.406,0,0,1,.982.3v-.29a1.522,1.522,0,0,0-.6-1.235,2.233,2.233,0,0,0-1.478-.486,2.758,2.758,0,0,0-2.207,1.094l-1.824-1.244a4.942,4.942,0,0,1,4.087-1.88,4.869,4.869,0,0,1,3.339,1.029,3.854,3.854,0,0,1,1.15,3.04v5.64h-2.469Zm0-2.815a5.293,5.293,0,0,0-.907-.337,3.979,3.979,0,0,0-1.029-.122,2.188,2.188,0,0,0-1.394.393,1.2,1.2,0,0,0-.486.973,1.081,1.081,0,0,0,.468.917,1.748,1.748,0,0,0,1.085.346,2.259,2.259,0,0,0,.917-.178,2.3,2.3,0,0,0,.72-.477,2.032,2.032,0,0,0,.458-.692A2.121,2.121,0,0,0,1110.832,104.1Z" transform="translate(-1047.552 -94.038)" fill="#2d2d2d"/>
      <path id="Path_14" data-name="Path 14" d="M1219.009,98.609h2.357V99.74h.15a2.91,2.91,0,0,1,1.075-1.019,3.556,3.556,0,0,1,1.805-.421,4,4,0,0,1,1.712.374,4.759,4.759,0,0,1,1.44,1.038,5.041,5.041,0,0,1,.991,1.581,5.725,5.725,0,0,1,0,4.022,4.78,4.78,0,0,1-.991,1.581,4.647,4.647,0,0,1-1.44,1.038,4,4,0,0,1-1.712.374,3.556,3.556,0,0,1-1.805-.421,2.838,2.838,0,0,1-1.075-1.019h-.15l.15,1.337v3.928H1219V98.609Zm4.873,7.379a2.466,2.466,0,0,0,.945-.187,2.7,2.7,0,0,0,.8-.533,2.631,2.631,0,0,0,.552-.842,2.987,2.987,0,0,0,0-2.226,2.582,2.582,0,0,0-.552-.842,2.38,2.38,0,0,0-.8-.533,2.333,2.333,0,0,0-.945-.187,2.648,2.648,0,0,0-.945.178,2.5,2.5,0,0,0-.8.524,2.629,2.629,0,0,0-.552.842,2.9,2.9,0,0,0-.215,1.132,2.743,2.743,0,0,0,.215,1.132,2.578,2.578,0,0,0,.552.842,2.353,2.353,0,0,0,.8.524A2.426,2.426,0,0,0,1223.882,105.988Z" transform="translate(-1151.344 -94.129)" fill="#2d2d2d"/>
      <path id="Path_15" data-name="Path 15" d="M1339.109,98.609h2.357V99.74h.15a2.91,2.91,0,0,1,1.076-1.019,3.554,3.554,0,0,1,1.8-.421,4,4,0,0,1,1.712.374,4.759,4.759,0,0,1,1.44,1.038,5.037,5.037,0,0,1,.991,1.581,5.723,5.723,0,0,1,0,4.022,4.778,4.778,0,0,1-.991,1.581,4.647,4.647,0,0,1-1.44,1.038,4,4,0,0,1-1.712.374,3.554,3.554,0,0,1-1.8-.421,2.838,2.838,0,0,1-1.076-1.019h-.15l.15,1.337v3.928H1339.1V98.609Zm4.873,7.379a2.466,2.466,0,0,0,.945-.187,2.7,2.7,0,0,0,.795-.533,2.631,2.631,0,0,0,.552-.842,2.988,2.988,0,0,0,0-2.226,2.58,2.58,0,0,0-.552-.842,2.381,2.381,0,0,0-.795-.533,2.334,2.334,0,0,0-.945-.187,2.647,2.647,0,0,0-.944.178,2.5,2.5,0,0,0-.8.524,2.625,2.625,0,0,0-.552.842,2.906,2.906,0,0,0-.215,1.132,2.745,2.745,0,0,0,.215,1.132,2.576,2.576,0,0,0,.552.842,2.352,2.352,0,0,0,.8.524A2.458,2.458,0,0,0,1343.982,105.988Z" transform="translate(-1260.211 -94.129)" fill="#2d2d2d"/>
    </g>
  </g>
</svg>
